<svg xmlns="http://www.w3.org/2000/svg" xmlns:xlink="http://www.w3.org/1999/xlink" width="141" height="102" viewBox="0 0 141 102">
  <defs>
    <clipPath id="clip-logo">
      <rect width="141" height="102"/>
    </clipPath>
  </defs>
  <g id="logo" clip-path="url(#clip-logo)">
    <g id="コンポーネント_1_1" data-name="コンポーネント 1 – 1" transform="translate(6 10)">
      <rect id="長方形_3" data-name="長方形 3" width="19" height="7" rx="3.5" transform="translate(78)" fill="#fff"/>
      <rect id="長方形_4" data-name="長方形 4" width="10" height="12" transform="translate(83 4)" fill="#fff"/>
      <path id="Ellipse_1" data-name="Ellipse 1" d="M37.5,6A31.5,31.5,0,1,0,69,37.5,31.536,31.536,0,0,0,37.5,6m0-6A37.5,37.5,0,1,1,0,37.5,37.5,37.5,0,0,1,37.5,0Z" transform="translate(51 10)" fill="#fff"/>
      <path id="Path_1" data-name="Path 1" d="M10.391,16.992-2.619,2.322a3.5,3.5,0,0,1,.3-4.941,3.5,3.5,0,0,1,4.941.3l9.161,10.33L30.2-3A3.5,3.5,0,0,1,35-1.8,3.5,3.5,0,0,1,33.8,3Z" transform="translate(74.5 43.5)" fill="#fff"/>
      <rect id="長方形_5" data-name="長方形 5" width="34" height="8" rx="4" transform="translate(28 24)" fill="#fff"/>
      <rect id="長方形_7" data-name="長方形 7" width="30" height="8" rx="4" transform="translate(27 48)" fill="#fff"/>
      <rect id="長方形_8" data-name="長方形 8" width="23" height="8" rx="4" transform="translate(34 60)" fill="#fff"/>
      <rect id="長方形_6" data-name="長方形 6" width="57" height="8" rx="4" transform="translate(0 36)" fill="#fff"/>
    </g>
  </g>
</svg>
